<mxfile host="app.diagrams.net" agent="Mozilla/5.0 (Windows NT 10.0; Win64; x64; rv:139.0) Gecko/20100101 Firefox/139.0" version="28.2.3">
  <diagram name="Страница — 1" id="VJM2AuPIefYYTYtJUDaH">
    <mxGraphModel dx="2072" dy="668" grid="1" gridSize="10" guides="1" tooltips="1" connect="1" arrows="1" fold="1" page="1" pageScale="1" pageWidth="827" pageHeight="1169" math="0" shadow="0">
      <root>
        <mxCell id="0" />
        <mxCell id="1" parent="0" />
        <UserObject label="" plantUmlData="{&#xa;  &quot;data&quot;: &quot;@startuml\ntitle Геометрическая интерпретация метода Ньютона\n\nskinparam defaultFontName Arial\nskinparam defaultFontSize 14\nskinparam rectangle {\n  BorderColor Black\n  BackgroundColor White\n  RoundCorner 10\n  Padding 4\n  MinimumWidth 160\n  MaximumWidth 160\n}\n\ntop to bottom direction\n\nrectangle \&quot;Выбор начального приближения x0\&quot;\nrectangle \&quot;Построение касательной в точке x_k\&quot;\nrectangle \&quot;Нахождение точки пересечения с осью X\&quot;\nrectangle \&quot;Переход к x_{k+1}\&quot;\nrectangle \&quot;Проверка |x_{k+1} - x_k| &lt; ε\&quot;\nrectangle \&quot;Вывод результата\&quot;\n\n@enduml\n&quot;,&#xa;  &quot;format&quot;: &quot;svg&quot;&#xa;}" id="uAlbVnMMJaa76xt25_W9-23">
          <mxCell style="shape=image;noLabel=1;verticalAlign=top;aspect=fixed;imageAspect=0;image=data:image/svg+xml,PHN2ZyB4bWxucz0iaHR0cDovL3d3dy53My5vcmcvMjAwMC9zdmciIHhtbG5zOnhsaW5rPSJodHRwOi8vd3d3LnczLm9yZy8xOTk5L3hsaW5rIiBjb250ZW50U3R5bGVUeXBlPSJ0ZXh0L2NzcyIgZGF0YS1kaWFncmFtLXR5cGU9IkRFU0NSSVBUSU9OIiBoZWlnaHQ9IjE3OHB4IiBwcmVzZXJ2ZUFzcGVjdFJhdGlvPSJub25lIiBzdHlsZT0id2lkdGg6ODU4cHg7aGVpZ2h0OjE3OHB4O2JhY2tncm91bmQ6I0ZGRkZGRjsiIHZlcnNpb249IjEuMSIgdmlld0JveD0iMCAwIDg1OCAxNzgiIHdpZHRoPSI4NThweCIgem9vbUFuZFBhbj0ibWFnbmlmeSI+PHRpdGxlPiYjMTA0MzsmIzEwNzc7JiMxMDg2OyYjMTA4NDsmIzEwNzc7JiMxMDkwOyYjMTA4ODsmIzEwODA7JiMxMDk1OyYjMTA3NzsmIzEwODk7JiMxMDgyOyYjMTA3MjsmIzExMDM7ICYjMTA4MDsmIzEwODU7JiMxMDkwOyYjMTA3NzsmIzEwODg7JiMxMDg3OyYjMTA4ODsmIzEwNzc7JiMxMDkwOyYjMTA3MjsmIzEwOTQ7JiMxMDgwOyYjMTEwMzsgJiMxMDg0OyYjMTA3NzsmIzEwOTA7JiMxMDg2OyYjMTA3NjsmIzEwNzI7ICYjMTA1MzsmIzExMDA7JiMxMTAyOyYjMTA5MDsmIzEwODY7JiMxMDg1OyYjMTA3Mjs8L3RpdGxlPjxkZWZzLz48Zz48dGV4dCBmaWxsPSIjMDAwMDAwIiBmb250LWZhbWlseT0iQXJpYWwiIGZvbnQtc2l6ZT0iMTQiIGZvbnQtd2VpZ2h0PSJib2xkIiBsZW5ndGhBZGp1c3Q9InNwYWNpbmciIHRleHRMZW5ndGg9IjMwMSIgeD0iMjcxLjUiIHk9IjIzLjIzNDQiPiYjMTA0MzsmIzEwNzc7JiMxMDg2OyYjMTA4NDsmIzEwNzc7JiMxMDkwOyYjMTA4ODsmIzEwODA7JiMxMDk1OyYjMTA3NzsmIzEwODk7JiMxMDgyOyYjMTA3MjsmIzExMDM7ICYjMTA4MDsmIzEwODU7JiMxMDkwOyYjMTA3NzsmIzEwODg7JiMxMDg3OyYjMTA4ODsmIzEwNzc7JiMxMDkwOyYjMTA3MjsmIzEwOTQ7JiMxMDgwOyYjMTEwMzsgJiMxMDg0OyYjMTA3NzsmIzEwOTA7JiMxMDg2OyYjMTA3NjsmIzEwNzI7ICYjMTA1MzsmIzExMDA7JiMxMTAyOyYjMTA5MDsmIzEwODY7JiMxMDg1OyYjMTA3Mjs8L3RleHQ+PCEtLWVudGl0eSA/Pz8/PyA/Pz8/Pz8/Pz8/ID8/Pz8/Pz8/Pz8/IHgwLS0+PGcgY2xhc3M9ImVudGl0eSIgZGF0YS1lbnRpdHk9IiYjMTA0MjsmIzEwOTk7JiMxMDczOyYjMTA4NjsmIzEwODg7ICYjMTA4NTsmIzEwNzI7JiMxMDk1OyYjMTA3MjsmIzEwODM7JiMxMTAwOyYjMTA4NTsmIzEwODY7JiMxMDc1OyYjMTA4NjsgJiMxMDg3OyYjMTA4ODsmIzEwODA7JiMxMDczOyYjMTA4MzsmIzEwODA7JiMxMDc4OyYjMTA3NzsmIzEwODU7JiMxMDgwOyYjMTEwMzsgeDAiIGRhdGEtc291cmNlLWxpbmU9IjE2IiBkYXRhLXVpZD0iZW50MDAwMiIgaWQ9ImVudGl0eV8mIzEwNDI7JiMxMDk5OyYjMTA3MzsmIzEwODY7JiMxMDg4OyAmIzEwODU7JiMxMDcyOyYjMTA5NTsmIzEwNzI7JiMxMDgzOyYjMTEwMDsmIzEwODU7JiMxMDg2OyYjMTA3NTsmIzEwODY7ICYjMTA4NzsmIzEwODg7JiMxMDgwOyYjMTA3MzsmIzEwODM7JiMxMDgwOyYjMTA3ODsmIzEwNzc7JiMxMDg1OyYjMTA4MDsmIzExMDM7IHgwIj48cmVjdCBmaWxsPSIjRkZGRkZGIiBoZWlnaHQ9IjM0Ljk4NDQiIHJ4PSI1IiByeT0iNSIgc3R5bGU9InN0cm9rZTojMDAwMDAwO3N0cm9rZS13aWR0aDowLjU7IiB3aWR0aD0iMjM3IiB4PSI3IiB5PSI0Mi45ODQ0Ii8+PHRleHQgZmlsbD0iIzAwMDAwMCIgZm9udC1mYW1pbHk9IkFyaWFsIiBmb250LXNpemU9IjE0IiBsZW5ndGhBZGp1c3Q9InNwYWNpbmciIHRleHRMZW5ndGg9IjIxNyIgeD0iMTciIHk9IjY2LjIxODgiPiYjMTA0MjsmIzEwOTk7JiMxMDczOyYjMTA4NjsmIzEwODg7ICYjMTA4NTsmIzEwNzI7JiMxMDk1OyYjMTA3MjsmIzEwODM7JiMxMTAwOyYjMTA4NTsmIzEwODY7JiMxMDc1OyYjMTA4NjsgJiMxMDg3OyYjMTA4ODsmIzEwODA7JiMxMDczOyYjMTA4MzsmIzEwODA7JiMxMDc4OyYjMTA3NzsmIzEwODU7JiMxMDgwOyYjMTEwMzsgeDA8L3RleHQ+PC9nPjwhLS1lbnRpdHkgPz8/Pz8/Pz8/PyA/Pz8/Pz8/Pz8/PyA/ID8/Pz8/IHhfay0tPjxnIGNsYXNzPSJlbnRpdHkiIGRhdGEtZW50aXR5PSImIzEwNTU7JiMxMDg2OyYjMTA4OTsmIzEwOTA7JiMxMDg4OyYjMTA4NjsmIzEwNzc7JiMxMDg1OyYjMTA4MDsmIzEwNzc7ICYjMTA4MjsmIzEwNzI7JiMxMDg5OyYjMTA3MjsmIzEwOTA7JiMxMDc3OyYjMTA4MzsmIzExMDA7JiMxMDg1OyYjMTA4NjsmIzEwODE7ICYjMTA3NDsgJiMxMDkwOyYjMTA4NjsmIzEwOTU7JiMxMDgyOyYjMTA3NzsgeF9rIiBkYXRhLXNvdXJjZS1saW5lPSIxNyIgZGF0YS11aWQ9ImVudDAwMDMiIGlkPSJlbnRpdHlfJiMxMDU1OyYjMTA4NjsmIzEwODk7JiMxMDkwOyYjMTA4ODsmIzEwODY7JiMxMDc3OyYjMTA4NTsmIzEwODA7JiMxMDc3OyAmIzEwODI7JiMxMDcyOyYjMTA4OTsmIzEwNzI7JiMxMDkwOyYjMTA3NzsmIzEwODM7JiMxMTAwOyYjMTA4NTsmIzEwODY7JiMxMDgxOyAmIzEwNzQ7ICYjMTA5MDsmIzEwODY7JiMxMDk1OyYjMTA4MjsmIzEwNzc7IHhfayI+PHJlY3QgZmlsbD0iI0ZGRkZGRiIgaGVpZ2h0PSIzNC45ODQ0IiByeD0iNSIgcnk9IjUiIHN0eWxlPSJzdHJva2U6IzAwMDAwMDtzdHJva2Utd2lkdGg6MC41OyIgd2lkdGg9IjI1OCIgeD0iMjc5LjUiIHk9IjQyLjk4NDQiLz48dGV4dCBmaWxsPSIjMDAwMDAwIiBmb250LWZhbWlseT0iQXJpYWwiIGZvbnQtc2l6ZT0iMTQiIGxlbmd0aEFkanVzdD0ic3BhY2luZyIgdGV4dExlbmd0aD0iMjM4IiB4PSIyODkuNSIgeT0iNjYuMjE4OCI+JiMxMDU1OyYjMTA4NjsmIzEwODk7JiMxMDkwOyYjMTA4ODsmIzEwODY7JiMxMDc3OyYjMTA4NTsmIzEwODA7JiMxMDc3OyAmIzEwODI7JiMxMDcyOyYjMTA4OTsmIzEwNzI7JiMxMDkwOyYjMTA3NzsmIzEwODM7JiMxMTAwOyYjMTA4NTsmIzEwODY7JiMxMDgxOyAmIzEwNzQ7ICYjMTA5MDsmIzEwODY7JiMxMDk1OyYjMTA4MjsmIzEwNzc7IHhfazwvdGV4dD48L2c+PCEtLWVudGl0eSA/Pz8/Pz8/Pz8/ID8/Pz8/ID8/Pz8/Pz8/Pz8/ID8gPz8/PyBYLS0+PGcgY2xhc3M9ImVudGl0eSIgZGF0YS1lbnRpdHk9IiYjMTA1MzsmIzEwNzI7JiMxMDkzOyYjMTA4NjsmIzEwNzg7JiMxMDc2OyYjMTA3NzsmIzEwODU7JiMxMDgwOyYjMTA3NzsgJiMxMDkwOyYjMTA4NjsmIzEwOTU7JiMxMDgyOyYjMTA4MDsgJiMxMDg3OyYjMTA3NzsmIzEwODg7JiMxMDc3OyYjMTA4OTsmIzEwNzc7JiMxMDk1OyYjMTA3NzsmIzEwODU7JiMxMDgwOyYjMTEwMzsgJiMxMDg5OyAmIzEwODY7JiMxMDg5OyYjMTEwMDsmIzExMDI7IFgiIGRhdGEtc291cmNlLWxpbmU9IjE4IiBkYXRhLXVpZD0iZW50MDAwNCIgaWQ9ImVudGl0eV8mIzEwNTM7JiMxMDcyOyYjMTA5MzsmIzEwODY7JiMxMDc4OyYjMTA3NjsmIzEwNzc7JiMxMDg1OyYjMTA4MDsmIzEwNzc7ICYjMTA5MDsmIzEwODY7JiMxMDk1OyYjMTA4MjsmIzEwODA7ICYjMTA4NzsmIzEwNzc7JiMxMDg4OyYjMTA3NzsmIzEwODk7JiMxMDc3OyYjMTA5NTsmIzEwNzc7JiMxMDg1OyYjMTA4MDsmIzExMDM7ICYjMTA4OTsgJiMxMDg2OyYjMTA4OTsmIzExMDA7JiMxMTAyOyBYIj48cmVjdCBmaWxsPSIjRkZGRkZGIiBoZWlnaHQ9IjM0Ljk4NDQiIHJ4PSI1IiByeT0iNSIgc3R5bGU9InN0cm9rZTojMDAwMDAwO3N0cm9rZS13aWR0aDowLjU7IiB3aWR0aD0iMjc5IiB4PSI1NzMiIHk9IjQyLjk4NDQiLz48dGV4dCBmaWxsPSIjMDAwMDAwIiBmb250LWZhbWlseT0iQXJpYWwiIGZvbnQtc2l6ZT0iMTQiIGxlbmd0aEFkanVzdD0ic3BhY2luZyIgdGV4dExlbmd0aD0iMjU5IiB4PSI1ODMiIHk9IjY2LjIxODgiPiYjMTA1MzsmIzEwNzI7JiMxMDkzOyYjMTA4NjsmIzEwNzg7JiMxMDc2OyYjMTA3NzsmIzEwODU7JiMxMDgwOyYjMTA3NzsgJiMxMDkwOyYjMTA4NjsmIzEwOTU7JiMxMDgyOyYjMTA4MDsgJiMxMDg3OyYjMTA3NzsmIzEwODg7JiMxMDc3OyYjMTA4OTsmIzEwNzc7JiMxMDk1OyYjMTA3NzsmIzEwODU7JiMxMDgwOyYjMTEwMzsgJiMxMDg5OyAmIzEwODY7JiMxMDg5OyYjMTEwMDsmIzExMDI7IFg8L3RleHQ+PC9nPjwhLS1lbnRpdHkgPz8/Pz8/PyA/IHhfe2srMX0tLT48ZyBjbGFzcz0iZW50aXR5IiBkYXRhLWVudGl0eT0iJiMxMDU1OyYjMTA3NzsmIzEwODg7JiMxMDc3OyYjMTA5MzsmIzEwODY7JiMxMDc2OyAmIzEwODI7IHhfe2srMX0iIGRhdGEtc291cmNlLWxpbmU9IjE5IiBkYXRhLXVpZD0iZW50MDAwNSIgaWQ9ImVudGl0eV8mIzEwNTU7JiMxMDc3OyYjMTA4ODsmIzEwNzc7JiMxMDkzOyYjMTA4NjsmIzEwNzY7ICYjMTA4MjsgeF97aysxfSI+PHJlY3QgZmlsbD0iI0ZGRkZGRiIgaGVpZ2h0PSIzNC45ODQ0IiByeD0iNSIgcnk9IjUiIHN0eWxlPSJzdHJva2U6IzAwMDAwMDtzdHJva2Utd2lkdGg6MC41OyIgd2lkdGg9IjEzOSIgeD0iNTYiIHk9IjEzNy45ODQ0Ii8+PHRleHQgZmlsbD0iIzAwMDAwMCIgZm9udC1mYW1pbHk9IkFyaWFsIiBmb250LXNpemU9IjE0IiBsZW5ndGhBZGp1c3Q9InNwYWNpbmciIHRleHRMZW5ndGg9IjExOSIgeD0iNjYiIHk9IjE2MS4yMTg4Ij4mIzEwNTU7JiMxMDc3OyYjMTA4ODsmIzEwNzc7JiMxMDkzOyYjMTA4NjsmIzEwNzY7ICYjMTA4MjsgeF97aysxfTwvdGV4dD48L2c+PCEtLWVudGl0eSA/Pz8/Pz8/PyB8eF97aysxfSAtIHhfa3wgPCA/LS0+PGcgY2xhc3M9ImVudGl0eSIgZGF0YS1lbnRpdHk9IiYjMTA1NTsmIzEwODg7JiMxMDg2OyYjMTA3NDsmIzEwNzc7JiMxMDg4OyYjMTA4MjsmIzEwNzI7IHx4X3trKzF9IC0geF9rfCAmbHQ7ICYjOTQ5OyIgZGF0YS1zb3VyY2UtbGluZT0iMjAiIGRhdGEtdWlkPSJlbnQwMDA2IiBpZD0iZW50aXR5XyYjMTA1NTsmIzEwODg7JiMxMDg2OyYjMTA3NDsmIzEwNzc7JiMxMDg4OyYjMTA4MjsmIzEwNzI7IHx4X3trKzF9IC0geF9rfCAmbHQ7ICYjOTQ5OyI+PHJlY3QgZmlsbD0iI0ZGRkZGRiIgaGVpZ2h0PSIzNC45ODQ0IiByeD0iNSIgcnk9IjUiIHN0eWxlPSJzdHJva2U6IzAwMDAwMDtzdHJva2Utd2lkdGg6MC41OyIgd2lkdGg9IjIxNiIgeD0iMjMwLjUiIHk9IjEzNy45ODQ0Ii8+PHRleHQgZmlsbD0iIzAwMDAwMCIgZm9udC1mYW1pbHk9IkFyaWFsIiBmb250LXNpemU9IjE0IiBsZW5ndGhBZGp1c3Q9InNwYWNpbmciIHRleHRMZW5ndGg9IjE5NiIgeD0iMjQwLjUiIHk9IjE2MS4yMTg4Ij4mIzEwNTU7JiMxMDg4OyYjMTA4NjsmIzEwNzQ7JiMxMDc3OyYjMTA4ODsmIzEwODI7JiMxMDcyOyB8eF97aysxfSAtIHhfa3wgJmx0OyAmIzk0OTs8L3RleHQ+PC9nPjwhLS1lbnRpdHkgPz8/Pz8gPz8/Pz8/Pz8/Py0tPjxnIGNsYXNzPSJlbnRpdHkiIGRhdGEtZW50aXR5PSImIzEwNDI7JiMxMDk5OyYjMTA3NDsmIzEwODY7JiMxMDc2OyAmIzEwODg7JiMxMDc3OyYjMTA3OTsmIzEwOTE7JiMxMDgzOyYjMTEwMDsmIzEwOTA7JiMxMDcyOyYjMTA5MDsmIzEwNzI7IiBkYXRhLXNvdXJjZS1saW5lPSIyMSIgZGF0YS11aWQ9ImVudDAwMDciIGlkPSJlbnRpdHlfJiMxMDQyOyYjMTA5OTsmIzEwNzQ7JiMxMDg2OyYjMTA3NjsgJiMxMDg4OyYjMTA3NzsmIzEwNzk7JiMxMDkxOyYjMTA4MzsmIzExMDA7JiMxMDkwOyYjMTA3MjsmIzEwOTA7JiMxMDcyOyI+PHJlY3QgZmlsbD0iI0ZGRkZGRiIgaGVpZ2h0PSIzNC45ODQ0IiByeD0iNSIgcnk9IjUiIHN0eWxlPSJzdHJva2U6IzAwMDAwMDtzdHJva2Utd2lkdGg6MC41OyIgd2lkdGg9IjEzMiIgeD0iNDgxLjUiIHk9IjEzNy45ODQ0Ii8+PHRleHQgZmlsbD0iIzAwMDAwMCIgZm9udC1mYW1pbHk9IkFyaWFsIiBmb250LXNpemU9IjE0IiBsZW5ndGhBZGp1c3Q9InNwYWNpbmciIHRleHRMZW5ndGg9IjExMiIgeD0iNDkxLjUiIHk9IjE2MS4yMTg4Ij4mIzEwNDI7JiMxMDk5OyYjMTA3NDsmIzEwODY7JiMxMDc2OyAmIzEwODg7JiMxMDc3OyYjMTA3OTsmIzEwOTE7JiMxMDgzOyYjMTEwMDsmIzEwOTA7JiMxMDcyOyYjMTA5MDsmIzEwNzI7PC90ZXh0PjwvZz48IS0tU1JDPVtSTDlESW1DbjVCcGxodFpxQWU4NXlVSjUyanVnZVdVeklVb2tSVVhzOHA2NWVYTFFISnFlMmRla19lTFFrcmVfa2x1M1VWYjdKYkFqamRoOFJkUlVsQ2JhdFhmZnVlWnViYkZFLThySlVzblJGQjNkc0JOdlhSbHNjZFowR3RpQ2VDTmxNQTAwRldDOTlULTFwWnZ0WUpsc3FieHZwbzV0V3MyX0FmQ3plS01EbWNYTnI2RXBlWEFwQWNlSEJNYWZ1bF9oNl84V2VscHlod0FFSWFPYVBSV3kzOFdBSWVVSE5iUW5xYkk4SFFkZ0NCcEFNak1KUzhIbExnSTlXQS1GODlyNGNsOXAwRFA0NkNnYUpGRk81c0tZUV9OUWZXbkRYVjhCaGJtS1pLZGVBMFlDc1lFWlE0U1BlczFLRVpUSTlLN21Pb2w3RF9RMnhwY3BCTjh0SHRYVFZoTU5zNlZ5bTFkdnMwUFdsRUJ2WUFJN0ZocDZONnYydkd1QVJQel9EazltSWR1NFJJcGFGelB5OWt3SG9uYWRsTzNLc0F2RUFkTkdTMGhZOC1Sb2hKSmMzLTM3M3pEREU3TUpfbDlacy1HVE84WXFETXJqckUxNC1wMjU4bS1oQ19jWkFQUXR0bERTLUFSYzV1amNkU0tjQlQ5N2NsaUpOQ3poRWRiLWlZVmthbHU3bXlmejBXMDBdLS0+PC9nPjwvc3ZnPg==;" vertex="1" parent="1">
            <mxGeometry x="-110" y="580" width="858" height="178" as="geometry" />
          </mxCell>
        </UserObject>
      </root>
    </mxGraphModel>
  </diagram>
</mxfile>
